<svg xmlns="http://www.w3.org/2000/svg" width="50.699" height="49.979" viewBox="0 0 50.699 49.979">
  <g id="Group_1547" data-name="Group 1547" transform="translate(-568.297 -4534.395)">
    <g id="Group_1151" data-name="Group 1151" transform="translate(568.296 4534.395)">
      <g id="Group_1145" data-name="Group 1145" transform="translate(0 0)">
        <path id="Path_1331" data-name="Path 1331" d="M577.63,4566.691a23.9,23.9,0,0,1,19.749-23.421V4541.7a25.308,25.308,0,0,0,0,49.979v-1.568A23.9,23.9,0,0,1,577.63,4566.691Z" transform="translate(-576.072 -4541.702)"/>
        <path id="Path_1332" data-name="Path 1332" d="M632.779,4566.691a25.455,25.455,0,0,0-21.307-24.989v1.568a23.763,23.763,0,0,1,0,46.842v1.568A25.454,25.454,0,0,0,632.779,4566.691Z" transform="translate(-582.079 -4541.702)"/>
      </g>
      <g id="Group_1150" data-name="Group 1150" transform="translate(10.884 10.885)">
        <g id="Group_1146" data-name="Group 1146">
          <path id="Path_1333" data-name="Path 1333" d="M597.984,4572.327a8.732,8.732,0,1,1,8.733-8.732A8.743,8.743,0,0,1,597.984,4572.327Zm0-15.905a7.174,7.174,0,1,0,7.174,7.173A7.182,7.182,0,0,0,597.984,4556.421Z" transform="translate(-589.251 -4554.863)"/>
        </g>
        <g id="Group_1147" data-name="Group 1147" transform="translate(0 8.728)">
          <path id="Path_1334" data-name="Path 1334" d="M589.316,4581.884l-.065-16.665,1.558-.007.072,18.223h0A1.557,1.557,0,0,1,589.316,4581.884Z" transform="translate(-589.251 -4565.213)"/>
        </g>
        <g id="Group_1148" data-name="Group 1148" transform="translate(11.467)">
          <path id="Path_1335" data-name="Path 1335" d="M611.58,4572.327a8.732,8.732,0,1,1,8.733-8.732A8.742,8.742,0,0,1,611.58,4572.327Zm0-15.905a7.174,7.174,0,1,0,7.175,7.173A7.181,7.181,0,0,0,611.58,4556.421Z" transform="translate(-602.848 -4554.863)"/>
        </g>
        <g id="Group_1149" data-name="Group 1149" transform="translate(27.302 8.728)">
          <path id="Path_1336" data-name="Path 1336" d="M621.626,4583.436h0l.071-18.223,1.558.007-.065,16.665A1.556,1.556,0,0,1,621.626,4583.436Z" transform="translate(-621.626 -4565.213)"/>
        </g>
      </g>
    </g>
  </g>
</svg>
