<svg xmlns="http://www.w3.org/2000/svg" width="210.39" height="10.753" viewBox="0 0 210.39 10.753">
  <g id="Group_1011" data-name="Group 1011" transform="translate(-1086.187 -7010.066)">
    <g id="Group_1010" data-name="Group 1010" transform="translate(1086.187 7010.066)">
      <path id="Path_1206" data-name="Path 1206" d="M1089.249,7011.771h-3.062v-1.538h7.737v1.538h-3.063v8.856h-1.612Z" transform="translate(-1086.187 -7010.054)" fill="#fff"/>
      <path id="Path_1207" data-name="Path 1207" d="M1105.461,7010.233v10.395h-1.614v-4.7h-5.286v4.7h-1.614v-10.395h1.614v4.227h5.286v-4.227Z" transform="translate(-1085.388 -7010.054)" fill="#fff"/>
      <path id="Path_1208" data-name="Path 1208" d="M1110.8,7011.711v2.973h4.525v1.39H1110.8v3.076h4.854v1.479h-6.467v-10.395h6.467v1.478Z" transform="translate(-1084.48 -7010.054)" fill="#fff"/>
      <path id="Path_1209" data-name="Path 1209" d="M1132.71,7010.233v10.395H1131.1v-4.7h-5.287v4.7H1124.2v-10.395h1.614v4.227h5.287v-4.227Z" transform="translate(-1083.365 -7010.054)" fill="#fff"/>
      <path id="Path_1210" data-name="Path 1210" d="M1138.361,7020.156a4.249,4.249,0,0,1-1.688-1.882,7.243,7.243,0,0,1,0-5.66,4.237,4.237,0,0,1,1.688-1.882,5.615,5.615,0,0,1,5.3,0,4.243,4.243,0,0,1,1.688,1.882,7.244,7.244,0,0,1,0,5.66,4.255,4.255,0,0,1-1.688,1.882,5.622,5.622,0,0,1-5.3,0Zm5.018-1.852a5.347,5.347,0,0,0,0-5.72,3.218,3.218,0,0,0-4.734,0,5.347,5.347,0,0,0,0,5.72,3.218,3.218,0,0,0,4.734,0Z" transform="translate(-1082.482 -7010.066)" fill="#fff"/>
      <path id="Path_1211" data-name="Path 1211" d="M1150.258,7019.605a4.659,4.659,0,0,1-1.105-3.279v-6.093h1.614v6.049a3.474,3.474,0,0,0,.664,2.277,2.66,2.66,0,0,0,3.809-.007,3.483,3.483,0,0,0,.664-2.271v-6.049h1.613v6.093a4.659,4.659,0,0,1-1.105,3.279,4.538,4.538,0,0,1-6.153,0Z" transform="translate(-1081.512 -7010.054)" fill="#fff"/>
      <path id="Path_1212" data-name="Path 1212" d="M1162.526,7020.6a9.33,9.33,0,0,1-1.778-.613v-1.643a7.311,7.311,0,0,0,3.48,1.046,2.3,2.3,0,0,0,1.427-.4,1.315,1.315,0,0,0,.53-1.106,1.239,1.239,0,0,0-.291-.843,2.128,2.128,0,0,0-.731-.538q-.442-.2-1.2-.471a12.252,12.252,0,0,1-1.568-.656,3,3,0,0,1-1.024-.89,2.43,2.43,0,0,1-.425-1.485,2.616,2.616,0,0,1,.964-2.143,4.006,4.006,0,0,1,2.606-.784,6.82,6.82,0,0,1,1.523.172,6,6,0,0,1,1.389.5v1.6a5.921,5.921,0,0,0-2.9-.836,2.5,2.5,0,0,0-1.427.352,1.1,1.1,0,0,0-.516.962,1.056,1.056,0,0,0,.27.732,1.994,1.994,0,0,0,.679.484q.411.188,1.128.441a13.073,13.073,0,0,1,1.627.687,3.151,3.151,0,0,1,1.083.948,2.685,2.685,0,0,1,.471,1.591,2.874,2.874,0,0,1-.964,2.277,3.742,3.742,0,0,1-2.561.844A7.766,7.766,0,0,1,1162.526,7020.6Z" transform="translate(-1080.652 -7010.066)" fill="#fff"/>
      <path id="Path_1213" data-name="Path 1213" d="M1172.8,7011.711v2.973h4.526v1.39H1172.8v3.076h4.853v1.479h-6.467v-10.395h6.467v1.478Z" transform="translate(-1079.877 -7010.054)" fill="#fff"/>
      <path id="Path_1214" data-name="Path 1214" d="M1188.171,7020.156a4.266,4.266,0,0,1-1.718-1.875,6.466,6.466,0,0,1-.582-2.838,6.4,6.4,0,0,1,.59-2.837,4.294,4.294,0,0,1,1.733-1.875,5.393,5.393,0,0,1,2.755-.665,6.812,6.812,0,0,1,1.523.172,4.867,4.867,0,0,1,1.344.516v1.643h-.059a4.43,4.43,0,0,0-1.247-.642,4.527,4.527,0,0,0-1.457-.239,3.2,3.2,0,0,0-2.576,1.038,4.3,4.3,0,0,0-.888,2.89,4.357,4.357,0,0,0,.873,2.89,3.139,3.139,0,0,0,2.546,1.039,4.48,4.48,0,0,0,1.464-.247,4.335,4.335,0,0,0,1.285-.694h.059v1.642a5.493,5.493,0,0,1-2.9.747A5.355,5.355,0,0,1,1188.171,7020.156Z" transform="translate(-1078.786 -7010.066)" fill="#fff"/>
      <path id="Path_1215" data-name="Path 1215" d="M1199.256,7020.156a4.249,4.249,0,0,1-1.688-1.882,7.243,7.243,0,0,1,0-5.66,4.237,4.237,0,0,1,1.688-1.882,5.615,5.615,0,0,1,5.3,0,4.25,4.25,0,0,1,1.688,1.882,7.256,7.256,0,0,1,0,5.66,4.261,4.261,0,0,1-1.688,1.882,5.622,5.622,0,0,1-5.3,0Zm5.018-1.852a5.347,5.347,0,0,0,0-5.72,3.218,3.218,0,0,0-4.734,0,5.347,5.347,0,0,0,0,5.72,3.218,3.218,0,0,0,4.734,0Z" transform="translate(-1077.961 -7010.066)" fill="#fff"/>
      <path id="Path_1216" data-name="Path 1216" d="M1210.117,7010.233h1.614v8.916h4.541v1.479h-6.154Z" transform="translate(-1076.986 -7010.054)" fill="#fff"/>
      <path id="Path_1217" data-name="Path 1217" d="M1219.293,7010.233h1.614v8.916h4.54v1.479h-6.153Z" transform="translate(-1076.305 -7010.054)" fill="#fff"/>
      <path id="Path_1218" data-name="Path 1218" d="M1230.083,7011.711v2.973h4.525v1.39h-4.525v3.076h4.854v1.479h-6.467v-10.395h6.467v1.478Z" transform="translate(-1075.624 -7010.054)" fill="#fff"/>
      <path id="Path_1219" data-name="Path 1219" d="M1240.446,7020.156a4.259,4.259,0,0,1-1.718-1.875,7.164,7.164,0,0,1,.007-5.675,4.293,4.293,0,0,1,1.732-1.875,5.4,5.4,0,0,1,2.757-.665,6.827,6.827,0,0,1,1.523.172,4.87,4.87,0,0,1,1.344.516v1.643h-.06a4.409,4.409,0,0,0-1.246-.642,4.531,4.531,0,0,0-1.457-.239,3.2,3.2,0,0,0-2.576,1.038,4.3,4.3,0,0,0-.888,2.89,4.357,4.357,0,0,0,.873,2.89,3.139,3.139,0,0,0,2.546,1.039,4.482,4.482,0,0,0,1.464-.247,4.316,4.316,0,0,0,1.284-.694h.06v1.642a5.494,5.494,0,0,1-2.9.747A5.355,5.355,0,0,1,1240.446,7020.156Z" transform="translate(-1074.906 -7010.066)" fill="#fff"/>
      <path id="Path_1220" data-name="Path 1220" d="M1251.913,7011.771h-3.062v-1.538h7.736v1.538h-3.062v8.856h-1.612Z" transform="translate(-1074.111 -7010.054)" fill="#fff"/>
      <path id="Path_1221" data-name="Path 1221" d="M1259.486,7010.233h1.614v10.395h-1.614Z" transform="translate(-1073.321 -7010.054)" fill="#fff"/>
      <path id="Path_1222" data-name="Path 1222" d="M1273.55,7010.233l-3.808,10.395H1267.8l-3.808-10.395h1.733l3.092,8.662,3.077-8.662Z" transform="translate(-1072.987 -7010.054)" fill="#fff"/>
      <path id="Path_1223" data-name="Path 1223" d="M1277.631,7011.711v2.973h4.525v1.39h-4.525v3.076h4.853v1.479h-6.467v-10.395h6.467v1.478Z" transform="translate(-1072.094 -7010.054)" fill="#fff"/>
    </g>
  </g>
</svg>
